<mxfile host="65bd71144e" modified="2020-11-14T21:21:02.361Z" agent="5.0 (Macintosh; Intel Mac OS X 10_16_0) AppleWebKit/537.36 (KHTML, like Gecko) Code-Insiders/1.52.0-insider Chrome/83.0.4103.122 Electron/9.3.3 Safari/537.36" version="13.6.5" etag="DwX-gWO35VMIWc2JuTGi">
    <diagram id="kVHvu4DFG7OGp3qJbRxA" name="Page-1">
        <mxGraphModel dx="1058" dy="679" grid="1" gridSize="10" guides="1" tooltips="1" connect="1" arrows="1" fold="1" page="1" pageScale="1" pageWidth="827" pageHeight="1169" math="0" shadow="0">
            <root>
                <mxCell id="0"/>
                <mxCell id="1" parent="0"/>
            </root>
        </mxGraphModel>
    </diagram>
</mxfile>